<mxfile host="app.diagrams.net" modified="2023-06-19T07:18:23.653Z" agent="Mozilla/5.0 (Windows NT 10.0; Win64; x64) AppleWebKit/537.36 (KHTML, like Gecko) Chrome/112.0.0.0 Safari/537.36" etag="4KN3kB1LSxLEafR5jYfv" version="21.1.8" type="device" pages="2">
  <diagram name="升级工单" id="RPq8gSIenuo_vXk5y5L8">
    <mxGraphModel dx="1434" dy="708" grid="1" gridSize="10" guides="1" tooltips="1" connect="1" arrows="1" fold="1" page="1" pageScale="1" pageWidth="827" pageHeight="1169" math="0" shadow="0">
      <root>
        <mxCell id="0" />
        <mxCell id="1" parent="0" />
        <mxCell id="Y7ef9qzmc2SHpKbBG-G2-1" style="edgeStyle=none;rounded=0;orthogonalLoop=1;jettySize=auto;html=1;strokeWidth=1;fontSize=16;" edge="1" parent="1" source="Y7ef9qzmc2SHpKbBG-G2-2" target="Y7ef9qzmc2SHpKbBG-G2-4">
          <mxGeometry relative="1" as="geometry" />
        </mxCell>
        <mxCell id="Y7ef9qzmc2SHpKbBG-G2-2" value="开始" style="ellipse;whiteSpace=wrap;html=1;strokeWidth=1;fontSize=16;" vertex="1" parent="1">
          <mxGeometry x="270" y="30" width="120" height="80" as="geometry" />
        </mxCell>
        <mxCell id="Y7ef9qzmc2SHpKbBG-G2-3" value="" style="edgeStyle=none;rounded=0;orthogonalLoop=1;jettySize=auto;html=1;strokeWidth=1;fontSize=16;" edge="1" parent="1" source="Y7ef9qzmc2SHpKbBG-G2-4" target="Y7ef9qzmc2SHpKbBG-G2-6">
          <mxGeometry relative="1" as="geometry" />
        </mxCell>
        <mxCell id="Y7ef9qzmc2SHpKbBG-G2-4" value="输入基本信息" style="verticalLabelPosition=middle;verticalAlign=middle;html=1;shape=trapezoid;perimeter=trapezoidPerimeter;whiteSpace=wrap;size=0.23;arcSize=10;flipV=1;labelPosition=center;align=center;strokeWidth=1;fontSize=16;" vertex="1" parent="1">
          <mxGeometry x="280" y="190" width="100" height="60" as="geometry" />
        </mxCell>
        <mxCell id="Y7ef9qzmc2SHpKbBG-G2-5" value="标题&lt;br style=&quot;font-size: 16px;&quot;&gt;升级原因&lt;br style=&quot;font-size: 16px;&quot;&gt;影响范围" style="strokeWidth=1;html=1;shape=mxgraph.flowchart.annotation_2;align=left;labelPosition=right;pointerEvents=1;fontSize=16;" vertex="1" parent="1">
          <mxGeometry x="414" y="170" width="50" height="100" as="geometry" />
        </mxCell>
        <mxCell id="Y7ef9qzmc2SHpKbBG-G2-6" value="选择环境" style="whiteSpace=wrap;html=1;arcSize=10;strokeWidth=1;fontSize=16;" vertex="1" parent="1">
          <mxGeometry x="270" y="330" width="120" height="60" as="geometry" />
        </mxCell>
        <mxCell id="Y7ef9qzmc2SHpKbBG-G2-7" value="是" style="edgeStyle=orthogonalEdgeStyle;rounded=0;orthogonalLoop=1;jettySize=auto;html=1;strokeWidth=1;fontSize=16;" edge="1" parent="1" source="Y7ef9qzmc2SHpKbBG-G2-12" target="Y7ef9qzmc2SHpKbBG-G2-9">
          <mxGeometry relative="1" as="geometry">
            <mxPoint x="230" y="650" as="sourcePoint" />
          </mxGeometry>
        </mxCell>
        <mxCell id="Y7ef9qzmc2SHpKbBG-G2-8" style="edgeStyle=orthogonalEdgeStyle;rounded=0;orthogonalLoop=1;jettySize=auto;html=1;exitX=0.5;exitY=1;exitDx=0;exitDy=0;strokeWidth=1;fontSize=16;" edge="1" parent="1" source="Y7ef9qzmc2SHpKbBG-G2-9" target="Y7ef9qzmc2SHpKbBG-G2-16">
          <mxGeometry relative="1" as="geometry" />
        </mxCell>
        <mxCell id="Y7ef9qzmc2SHpKbBG-G2-9" value="根据模板&lt;br style=&quot;font-size: 16px;&quot;&gt;生成应用列表" style="whiteSpace=wrap;html=1;arcSize=10;strokeWidth=1;fontSize=16;" vertex="1" parent="1">
          <mxGeometry x="450" y="620" width="120" height="60" as="geometry" />
        </mxCell>
        <mxCell id="Y7ef9qzmc2SHpKbBG-G2-10" value="" style="edgeStyle=orthogonalEdgeStyle;rounded=0;orthogonalLoop=1;jettySize=auto;html=1;strokeWidth=1;fontSize=16;" edge="1" parent="1" source="Y7ef9qzmc2SHpKbBG-G2-14" target="Y7ef9qzmc2SHpKbBG-G2-12">
          <mxGeometry relative="1" as="geometry">
            <mxPoint x="330" y="390" as="sourcePoint" />
            <mxPoint x="230" y="540" as="targetPoint" />
          </mxGeometry>
        </mxCell>
        <mxCell id="Y7ef9qzmc2SHpKbBG-G2-11" value="否" style="edgeStyle=orthogonalEdgeStyle;rounded=0;orthogonalLoop=1;jettySize=auto;html=1;strokeWidth=1;fontSize=16;" edge="1" parent="1" source="Y7ef9qzmc2SHpKbBG-G2-12" target="Y7ef9qzmc2SHpKbBG-G2-16">
          <mxGeometry relative="1" as="geometry" />
        </mxCell>
        <mxCell id="Y7ef9qzmc2SHpKbBG-G2-12" value="使用模板？" style="strokeWidth=1;html=1;shape=mxgraph.flowchart.decision;whiteSpace=wrap;fontSize=16;" vertex="1" parent="1">
          <mxGeometry x="280" y="610" width="100" height="80" as="geometry" />
        </mxCell>
        <mxCell id="Y7ef9qzmc2SHpKbBG-G2-13" value="" style="edgeStyle=orthogonalEdgeStyle;rounded=0;orthogonalLoop=1;jettySize=auto;html=1;strokeWidth=1;fontSize=16;" edge="1" parent="1" source="Y7ef9qzmc2SHpKbBG-G2-6" target="Y7ef9qzmc2SHpKbBG-G2-14">
          <mxGeometry relative="1" as="geometry">
            <mxPoint x="330" y="390" as="sourcePoint" />
            <mxPoint x="330" y="510" as="targetPoint" />
          </mxGeometry>
        </mxCell>
        <mxCell id="Y7ef9qzmc2SHpKbBG-G2-14" value="选择节点" style="whiteSpace=wrap;html=1;arcSize=10;strokeWidth=1;fontSize=16;" vertex="1" parent="1">
          <mxGeometry x="270" y="470" width="120" height="60" as="geometry" />
        </mxCell>
        <mxCell id="Y7ef9qzmc2SHpKbBG-G2-15" value="" style="edgeStyle=orthogonalEdgeStyle;rounded=0;orthogonalLoop=1;jettySize=auto;html=1;strokeWidth=1;fontSize=16;" edge="1" parent="1" source="Y7ef9qzmc2SHpKbBG-G2-16" target="Y7ef9qzmc2SHpKbBG-G2-19">
          <mxGeometry relative="1" as="geometry" />
        </mxCell>
        <mxCell id="Y7ef9qzmc2SHpKbBG-G2-16" value="选择应用" style="strokeWidth=1;html=1;shape=mxgraph.flowchart.loop_limit;whiteSpace=wrap;fontSize=16;" vertex="1" parent="1">
          <mxGeometry x="270" y="800" width="120" height="60" as="geometry" />
        </mxCell>
        <mxCell id="Y7ef9qzmc2SHpKbBG-G2-17" value="是" style="edgeStyle=orthogonalEdgeStyle;rounded=0;orthogonalLoop=1;jettySize=auto;html=1;strokeWidth=1;fontSize=16;" edge="1" parent="1" source="Y7ef9qzmc2SHpKbBG-G2-19" target="Y7ef9qzmc2SHpKbBG-G2-21">
          <mxGeometry relative="1" as="geometry" />
        </mxCell>
        <mxCell id="Y7ef9qzmc2SHpKbBG-G2-18" style="edgeStyle=orthogonalEdgeStyle;rounded=0;orthogonalLoop=1;jettySize=auto;html=1;strokeWidth=1;fontSize=16;" edge="1" parent="1" source="Y7ef9qzmc2SHpKbBG-G2-19" target="Y7ef9qzmc2SHpKbBG-G2-24">
          <mxGeometry relative="1" as="geometry" />
        </mxCell>
        <mxCell id="Y7ef9qzmc2SHpKbBG-G2-19" value="修改版本？" style="rhombus;whiteSpace=wrap;html=1;strokeWidth=1;fontSize=16;" vertex="1" parent="1">
          <mxGeometry x="285" y="930" width="90" height="80" as="geometry" />
        </mxCell>
        <mxCell id="Y7ef9qzmc2SHpKbBG-G2-20" style="edgeStyle=orthogonalEdgeStyle;rounded=0;orthogonalLoop=1;jettySize=auto;html=1;exitX=0.5;exitY=1;exitDx=0;exitDy=0;exitPerimeter=0;strokeWidth=1;fontSize=16;" edge="1" parent="1" source="Y7ef9qzmc2SHpKbBG-G2-24" target="Y7ef9qzmc2SHpKbBG-G2-22">
          <mxGeometry relative="1" as="geometry" />
        </mxCell>
        <mxCell id="Y7ef9qzmc2SHpKbBG-G2-21" value="选择版本号" style="strokeWidth=1;html=1;shape=mxgraph.flowchart.loop_limit;whiteSpace=wrap;fontSize=16;" vertex="1" parent="1">
          <mxGeometry x="464" y="940" width="100" height="60" as="geometry" />
        </mxCell>
        <mxCell id="Y7ef9qzmc2SHpKbBG-G2-22" value="结束" style="ellipse;whiteSpace=wrap;html=1;strokeWidth=1;fontSize=16;" vertex="1" parent="1">
          <mxGeometry x="270" y="1200" width="120" height="80" as="geometry" />
        </mxCell>
        <mxCell id="Y7ef9qzmc2SHpKbBG-G2-23" value="" style="edgeStyle=orthogonalEdgeStyle;rounded=0;orthogonalLoop=1;jettySize=auto;html=1;exitX=0.5;exitY=1;exitDx=0;exitDy=0;exitPerimeter=0;strokeWidth=1;fontSize=16;" edge="1" parent="1" source="Y7ef9qzmc2SHpKbBG-G2-21" target="Y7ef9qzmc2SHpKbBG-G2-24">
          <mxGeometry relative="1" as="geometry">
            <mxPoint x="514" y="1000" as="sourcePoint" />
            <mxPoint x="330" y="1200" as="targetPoint" />
          </mxGeometry>
        </mxCell>
        <mxCell id="Y7ef9qzmc2SHpKbBG-G2-24" value="升级任务" style="shape=process;whiteSpace=wrap;html=1;backgroundOutline=1;rounded=0;fontSize=16;" vertex="1" parent="1">
          <mxGeometry x="270" y="1080" width="120" height="60" as="geometry" />
        </mxCell>
      </root>
    </mxGraphModel>
  </diagram>
  <diagram id="jCMowxZgRrtI8zQIR5w4" name="部署任务">
    <mxGraphModel dx="1434" dy="708" grid="1" gridSize="10" guides="1" tooltips="1" connect="1" arrows="1" fold="1" page="1" pageScale="1" pageWidth="827" pageHeight="1169" math="0" shadow="0">
      <root>
        <mxCell id="0" />
        <mxCell id="1" parent="0" />
        <mxCell id="YlPvD_DDPe_moCNlwWsP-1" value="" style="edgeStyle=orthogonalEdgeStyle;rounded=0;orthogonalLoop=1;jettySize=auto;html=1;fontSize=16;" edge="1" parent="1" source="YlPvD_DDPe_moCNlwWsP-2" target="YlPvD_DDPe_moCNlwWsP-4">
          <mxGeometry relative="1" as="geometry" />
        </mxCell>
        <mxCell id="YlPvD_DDPe_moCNlwWsP-2" value="开始" style="ellipse;whiteSpace=wrap;html=1;fontSize=16;" vertex="1" parent="1">
          <mxGeometry x="230" y="20" width="120" height="80" as="geometry" />
        </mxCell>
        <mxCell id="YlPvD_DDPe_moCNlwWsP-3" style="edgeStyle=orthogonalEdgeStyle;rounded=0;orthogonalLoop=1;jettySize=auto;html=1;fontSize=16;" edge="1" parent="1" source="YlPvD_DDPe_moCNlwWsP-4" target="YlPvD_DDPe_moCNlwWsP-6">
          <mxGeometry relative="1" as="geometry" />
        </mxCell>
        <mxCell id="YlPvD_DDPe_moCNlwWsP-4" value="以应用维度&lt;br style=&quot;font-size: 16px;&quot;&gt;生成升级任务" style="whiteSpace=wrap;html=1;fontSize=16;" vertex="1" parent="1">
          <mxGeometry x="230" y="180" width="120" height="60" as="geometry" />
        </mxCell>
        <mxCell id="YlPvD_DDPe_moCNlwWsP-5" value="" style="edgeStyle=orthogonalEdgeStyle;rounded=0;orthogonalLoop=1;jettySize=auto;html=1;fontSize=16;" edge="1" parent="1" source="YlPvD_DDPe_moCNlwWsP-6" target="YlPvD_DDPe_moCNlwWsP-8">
          <mxGeometry relative="1" as="geometry" />
        </mxCell>
        <mxCell id="YlPvD_DDPe_moCNlwWsP-6" value="选择任务" style="verticalLabelPosition=middle;verticalAlign=middle;html=1;shape=trapezoid;perimeter=trapezoidPerimeter;whiteSpace=wrap;size=0.23;arcSize=10;flipV=1;labelPosition=center;align=center;fontSize=16;" vertex="1" parent="1">
          <mxGeometry x="240" y="320" width="100" height="60" as="geometry" />
        </mxCell>
        <mxCell id="YlPvD_DDPe_moCNlwWsP-7" value="" style="edgeStyle=orthogonalEdgeStyle;rounded=0;orthogonalLoop=1;jettySize=auto;html=1;fontSize=16;" edge="1" parent="1" source="YlPvD_DDPe_moCNlwWsP-8" target="YlPvD_DDPe_moCNlwWsP-11">
          <mxGeometry relative="1" as="geometry" />
        </mxCell>
        <mxCell id="YlPvD_DDPe_moCNlwWsP-8" value="操作升级" style="whiteSpace=wrap;html=1;arcSize=10;fontSize=16;" vertex="1" parent="1">
          <mxGeometry x="230" y="460" width="120" height="60" as="geometry" />
        </mxCell>
        <mxCell id="YlPvD_DDPe_moCNlwWsP-9" value="否" style="edgeStyle=orthogonalEdgeStyle;rounded=0;orthogonalLoop=1;jettySize=auto;html=1;fontSize=16;" edge="1" parent="1" source="YlPvD_DDPe_moCNlwWsP-11" target="YlPvD_DDPe_moCNlwWsP-13">
          <mxGeometry relative="1" as="geometry" />
        </mxCell>
        <mxCell id="YlPvD_DDPe_moCNlwWsP-10" value="是" style="edgeStyle=orthogonalEdgeStyle;rounded=0;orthogonalLoop=1;jettySize=auto;html=1;fontSize=16;" edge="1" parent="1" source="YlPvD_DDPe_moCNlwWsP-11" target="YlPvD_DDPe_moCNlwWsP-15">
          <mxGeometry relative="1" as="geometry" />
        </mxCell>
        <mxCell id="YlPvD_DDPe_moCNlwWsP-11" value="成功？" style="rhombus;whiteSpace=wrap;html=1;arcSize=10;fontSize=16;" vertex="1" parent="1">
          <mxGeometry x="250" y="590" width="80" height="80" as="geometry" />
        </mxCell>
        <mxCell id="YlPvD_DDPe_moCNlwWsP-12" value="" style="edgeStyle=orthogonalEdgeStyle;rounded=0;orthogonalLoop=1;jettySize=auto;html=1;strokeWidth=1;fontSize=16;" edge="1" parent="1" source="YlPvD_DDPe_moCNlwWsP-13" target="YlPvD_DDPe_moCNlwWsP-18">
          <mxGeometry relative="1" as="geometry" />
        </mxCell>
        <mxCell id="YlPvD_DDPe_moCNlwWsP-13" value="重试 3 次" style="strokeWidth=1;html=1;shape=mxgraph.flowchart.loop_limit;whiteSpace=wrap;fontSize=16;" vertex="1" parent="1">
          <mxGeometry x="240" y="750" width="100" height="60" as="geometry" />
        </mxCell>
        <mxCell id="YlPvD_DDPe_moCNlwWsP-14" value="" style="edgeStyle=orthogonalEdgeStyle;rounded=0;orthogonalLoop=1;jettySize=auto;html=1;fontSize=16;" edge="1" parent="1" source="YlPvD_DDPe_moCNlwWsP-15" target="YlPvD_DDPe_moCNlwWsP-24">
          <mxGeometry relative="1" as="geometry" />
        </mxCell>
        <mxCell id="YlPvD_DDPe_moCNlwWsP-15" value="任务详情" style="whiteSpace=wrap;html=1;arcSize=10;fontSize=16;" vertex="1" parent="1">
          <mxGeometry x="420" y="600" width="120" height="60" as="geometry" />
        </mxCell>
        <mxCell id="YlPvD_DDPe_moCNlwWsP-16" value="否" style="edgeStyle=orthogonalEdgeStyle;rounded=0;orthogonalLoop=1;jettySize=auto;html=1;strokeWidth=1;fontSize=16;" edge="1" parent="1" source="YlPvD_DDPe_moCNlwWsP-18" target="YlPvD_DDPe_moCNlwWsP-20">
          <mxGeometry relative="1" as="geometry" />
        </mxCell>
        <mxCell id="YlPvD_DDPe_moCNlwWsP-17" value="是" style="edgeStyle=orthogonalEdgeStyle;rounded=0;orthogonalLoop=1;jettySize=auto;html=1;fontSize=16;" edge="1" parent="1" source="YlPvD_DDPe_moCNlwWsP-18" target="YlPvD_DDPe_moCNlwWsP-15">
          <mxGeometry relative="1" as="geometry" />
        </mxCell>
        <mxCell id="YlPvD_DDPe_moCNlwWsP-18" value="成功？" style="rhombus;whiteSpace=wrap;html=1;strokeWidth=1;fontSize=16;" vertex="1" parent="1">
          <mxGeometry x="440" y="740" width="80" height="80" as="geometry" />
        </mxCell>
        <mxCell id="YlPvD_DDPe_moCNlwWsP-19" style="edgeStyle=orthogonalEdgeStyle;rounded=0;orthogonalLoop=1;jettySize=auto;html=1;fontSize=16;" edge="1" parent="1" source="YlPvD_DDPe_moCNlwWsP-20" target="YlPvD_DDPe_moCNlwWsP-21">
          <mxGeometry relative="1" as="geometry" />
        </mxCell>
        <mxCell id="YlPvD_DDPe_moCNlwWsP-20" value="回滚" style="whiteSpace=wrap;html=1;strokeWidth=1;fontSize=16;" vertex="1" parent="1">
          <mxGeometry x="420" y="910" width="120" height="60" as="geometry" />
        </mxCell>
        <mxCell id="YlPvD_DDPe_moCNlwWsP-21" value="结束" style="ellipse;whiteSpace=wrap;html=1;fontSize=16;" vertex="1" parent="1">
          <mxGeometry x="420" y="1040" width="120" height="80" as="geometry" />
        </mxCell>
        <mxCell id="YlPvD_DDPe_moCNlwWsP-22" value="失败" style="edgeStyle=orthogonalEdgeStyle;rounded=0;orthogonalLoop=1;jettySize=auto;html=1;fontSize=16;" edge="1" parent="1" source="YlPvD_DDPe_moCNlwWsP-24" target="YlPvD_DDPe_moCNlwWsP-26">
          <mxGeometry relative="1" as="geometry" />
        </mxCell>
        <mxCell id="YlPvD_DDPe_moCNlwWsP-23" value="运行中" style="edgeStyle=orthogonalEdgeStyle;rounded=0;orthogonalLoop=1;jettySize=auto;html=1;fontSize=16;" edge="1" parent="1" source="YlPvD_DDPe_moCNlwWsP-24" target="YlPvD_DDPe_moCNlwWsP-28">
          <mxGeometry relative="1" as="geometry" />
        </mxCell>
        <mxCell id="YlPvD_DDPe_moCNlwWsP-24" value="容器状态？" style="rhombus;whiteSpace=wrap;html=1;arcSize=10;fontSize=16;" vertex="1" parent="1">
          <mxGeometry x="635" y="590" width="90" height="80" as="geometry" />
        </mxCell>
        <mxCell id="YlPvD_DDPe_moCNlwWsP-25" style="edgeStyle=orthogonalEdgeStyle;rounded=0;orthogonalLoop=1;jettySize=auto;html=1;fontSize=16;" edge="1" parent="1" source="YlPvD_DDPe_moCNlwWsP-26" target="YlPvD_DDPe_moCNlwWsP-27">
          <mxGeometry relative="1" as="geometry" />
        </mxCell>
        <mxCell id="YlPvD_DDPe_moCNlwWsP-26" value="排查错误" style="whiteSpace=wrap;html=1;arcSize=10;fontSize=16;" vertex="1" parent="1">
          <mxGeometry x="620" y="760" width="120" height="60" as="geometry" />
        </mxCell>
        <mxCell id="YlPvD_DDPe_moCNlwWsP-27" value="结束" style="ellipse;whiteSpace=wrap;html=1;fontSize=16;" vertex="1" parent="1">
          <mxGeometry x="620" y="890" width="120" height="80" as="geometry" />
        </mxCell>
        <mxCell id="YlPvD_DDPe_moCNlwWsP-28" value="结束" style="ellipse;whiteSpace=wrap;html=1;fontSize=16;" vertex="1" parent="1">
          <mxGeometry x="820" y="590" width="120" height="80" as="geometry" />
        </mxCell>
      </root>
    </mxGraphModel>
  </diagram>
</mxfile>
